<svg xmlns="http://www.w3.org/2000/svg" xmlns:xlink="http://www.w3.org/1999/xlink" width="500" zoomAndPan="magnify" viewBox="0 0 375 374.999991" height="500" preserveAspectRatio="xMidYMid meet" version="1.0"><defs><clipPath id="fe91153143"><path d="M 94.660156 108 L 280.660156 108 L 280.660156 318.320312 L 94.660156 318.320312 Z M 94.660156 108 " clip-rule="nonzero"/></clipPath><clipPath id="00c7e76fa2"><path d="M 138 56.570312 L 167 56.570312 L 167 92 L 138 92 Z M 138 56.570312 " clip-rule="nonzero"/></clipPath><clipPath id="7f9f583c3c"><path d="M 172 56.570312 L 201 56.570312 L 201 93 L 172 93 Z M 172 56.570312 " clip-rule="nonzero"/></clipPath><clipPath id="9fab90e65d"><path d="M 206 56.570312 L 235 56.570312 L 235 93 L 206 93 Z M 206 56.570312 " clip-rule="nonzero"/></clipPath></defs><g clip-path="url(#fe91153143)"><path fill="#264de4" d="M 187.578125 318.3125 L 111.6875 297.292969 L 94.777344 108.011719 L 280.605469 108.007812 L 263.683594 297.257812 L 187.582031 318.308594 Z M 187.578125 318.3125 " fill-opacity="1" fill-rule="nonzero"/></g><path fill="#2965f1" d="M 249.191406 285.210938 L 263.660156 123.488281 L 187.695312 123.484375 L 187.695312 302.21875 L 249.191406 285.207031 Z M 249.191406 285.210938 " fill-opacity="1" fill-rule="nonzero"/><path fill="#ebebeb" d="M 133.546875 193.6875 L 135.632812 216.898438 L 187.695312 216.898438 L 187.695312 193.6875 Z M 133.546875 193.6875 " fill-opacity="1" fill-rule="nonzero"/><path fill="#ebebeb" d="M 129.359375 146.695312 L 131.472656 169.914062 L 187.695312 169.914062 L 187.695312 146.695312 Z M 129.359375 146.695312 " fill-opacity="1" fill-rule="nonzero"/><path fill="#ebebeb" d="M 187.695312 253.976562 L 187.59375 254.003906 L 161.683594 247.019531 L 160.027344 228.507812 L 136.671875 228.507812 L 139.929688 264.960938 L 187.585938 278.160156 L 187.695312 278.128906 Z M 187.695312 253.976562 " fill-opacity="1" fill-rule="nonzero"/><g clip-path="url(#00c7e76fa2)"><path fill="#000000" d="M 138.511719 56.570312 L 166.691406 56.570312 L 166.691406 68.328125 L 150.296875 68.328125 L 150.296875 80.085938 L 166.691406 80.085938 L 166.691406 91.84375 L 138.511719 91.84375 Z M 138.511719 56.570312 " fill-opacity="1" fill-rule="nonzero"/></g><g clip-path="url(#7f9f583c3c)"><path fill="#000000" d="M 172.324219 56.570312 L 200.5 56.570312 L 200.5 66.792969 L 184.109375 66.792969 L 184.109375 68.839844 L 200.5 68.839844 L 200.5 92.355469 L 172.324219 92.355469 L 172.324219 81.621094 L 188.722656 81.621094 L 188.722656 79.574219 L 172.324219 79.574219 Z M 172.324219 56.570312 " fill-opacity="1" fill-rule="nonzero"/></g><g clip-path="url(#9fab90e65d)"><path fill="#000000" d="M 206.140625 56.570312 L 234.316406 56.570312 L 234.316406 66.792969 L 217.917969 66.792969 L 217.917969 68.839844 L 234.316406 68.839844 L 234.316406 92.355469 L 206.140625 92.355469 L 206.140625 81.621094 L 222.53125 81.621094 L 222.53125 79.574219 L 206.140625 79.574219 Z M 206.140625 56.570312 " fill-opacity="1" fill-rule="nonzero"/></g><path fill="#ffffff" d="M 241.695312 193.6875 L 245.890625 146.695312 L 187.613281 146.695312 L 187.613281 169.914062 L 220.394531 169.914062 L 218.28125 193.6875 L 187.613281 193.6875 L 187.613281 216.898438 L 216.265625 216.898438 L 213.5625 247.003906 L 187.613281 254 L 187.613281 278.144531 L 235.308594 264.960938 L 235.65625 261.035156 L 241.128906 199.917969 Z M 241.695312 193.6875 " fill-opacity="1" fill-rule="nonzero"/></svg>