<svg xmlns="http://www.w3.org/2000/svg" xmlns:xlink="http://www.w3.org/1999/xlink" width="500" zoomAndPan="magnify" viewBox="0 0 375 374.999991" height="500" preserveAspectRatio="xMidYMid meet" version="1.0"><defs><clipPath id="8f4444fcd1"><path d="M 94.660156 108 L 280.660156 108 L 280.660156 318.320312 L 94.660156 318.320312 Z M 94.660156 108 " clip-rule="nonzero"/></clipPath><clipPath id="0ea9381c34"><path d="M 112 56.570312 L 147 56.570312 L 147 92 L 112 92 Z M 112 56.570312 " clip-rule="nonzero"/></clipPath><clipPath id="681ec66d4b"><path d="M 151 56.570312 L 185 56.570312 L 185 92 L 151 92 Z M 151 56.570312 " clip-rule="nonzero"/></clipPath><clipPath id="297a096e5f"><path d="M 189 56.570312 L 230 56.570312 L 230 92 L 189 92 Z M 189 56.570312 " clip-rule="nonzero"/></clipPath><clipPath id="81e7b78df7"><path d="M 235 56.570312 L 264 56.570312 L 264 92 L 235 92 Z M 235 56.570312 " clip-rule="nonzero"/></clipPath></defs><g clip-path="url(#8f4444fcd1)"><path fill="#e44d26" d="M 280.609375 108.007812 L 263.679688 297.257812 L 187.578125 318.308594 L 111.6875 297.289062 L 94.777344 108.007812 L 280.605469 108.003906 L 280.613281 108.003906 Z M 280.609375 108.007812 " fill-opacity="1" fill-rule="nonzero"/></g><path fill="#f16529" d="M 187.695312 302.21875 L 249.191406 285.210938 L 263.660156 123.488281 L 187.695312 123.484375 Z M 187.695312 302.21875 " fill-opacity="1" fill-rule="nonzero"/><path fill="#ebebeb" d="M 154.785156 169.914062 L 187.695312 169.914062 L 187.695312 146.695312 L 129.359375 146.695312 L 129.914062 152.925781 L 135.632812 216.898438 L 187.695312 216.898438 L 187.695312 193.6875 L 156.910156 193.6875 Z M 154.785156 169.914062 " fill-opacity="1" fill-rule="nonzero"/><path fill="#ebebeb" d="M 160.027344 228.507812 L 136.671875 228.507812 L 139.929688 264.960938 L 187.585938 278.160156 L 187.695312 278.128906 L 187.695312 253.976562 L 187.59375 254.003906 L 161.683594 247.019531 Z M 160.027344 228.507812 " fill-opacity="1" fill-rule="nonzero"/><g clip-path="url(#0ea9381c34)"><path fill="#000000" d="M 112.066406 56.570312 L 123.890625 56.570312 L 123.890625 68.226562 L 134.703125 68.226562 L 134.703125 56.570312 L 146.527344 56.570312 L 146.527344 91.867188 L 134.707031 91.867188 L 134.707031 80.046875 L 123.890625 80.046875 L 123.890625 91.867188 L 112.066406 91.867188 Z M 112.066406 56.570312 " fill-opacity="1" fill-rule="nonzero"/></g><g clip-path="url(#681ec66d4b)"><path fill="#000000" d="M 162.074219 68.273438 L 151.667969 68.273438 L 151.667969 56.570312 L 184.316406 56.570312 L 184.316406 68.273438 L 173.898438 68.273438 L 173.898438 91.867188 L 162.078125 91.867188 L 162.078125 68.273438 Z M 162.074219 68.273438 " fill-opacity="1" fill-rule="nonzero"/></g><g clip-path="url(#297a096e5f)"><path fill="#000000" d="M 189.496094 56.570312 L 201.820312 56.570312 L 209.402344 68.972656 L 216.980469 56.570312 L 229.3125 56.570312 L 229.3125 91.867188 L 217.539062 91.867188 L 217.539062 74.371094 L 209.402344 86.921875 L 209.199219 86.921875 L 201.0625 74.371094 L 201.0625 91.867188 L 189.496094 91.867188 Z M 189.496094 56.570312 " fill-opacity="1" fill-rule="nonzero"/></g><g clip-path="url(#81e7b78df7)"><path fill="#000000" d="M 235.199219 56.570312 L 247.019531 56.570312 L 247.019531 80.199219 L 263.652344 80.199219 L 263.652344 91.867188 L 235.199219 91.867188 Z M 235.199219 56.570312 " fill-opacity="1" fill-rule="nonzero"/></g><path fill="#ffffff" d="M 187.613281 216.898438 L 216.265625 216.898438 L 213.5625 247.003906 L 187.613281 254 L 187.613281 278.144531 L 235.308594 264.960938 L 235.65625 261.035156 L 241.128906 199.917969 L 241.695312 193.6875 L 187.613281 193.6875 Z M 187.613281 216.898438 " fill-opacity="1" fill-rule="nonzero"/><path fill="#ffffff" d="M 187.613281 169.855469 L 187.613281 169.914062 L 243.808594 169.914062 L 244.273438 164.695312 L 245.339844 152.925781 L 245.890625 146.695312 L 187.613281 146.695312 Z M 187.613281 169.855469 " fill-opacity="1" fill-rule="nonzero"/></svg>